# xmcd
#
# Track frame offsets: 
#        150
#        16280
#        29477
#        44852
#        56395
#        70255
#        80982
#        98345
#        116452
#        127797
#        146467
#        163130
#
# Disc length: 2344 seconds
#
# Revision: 3
# Processed by: cddbd v1.5.2PL0 Copyright (c) Steve Scherf et al.
# Submitted via: ExactAudioCopy v1.0b3
#
DISCID=9f09260c
DTITLE=Krauss, Alison and Union Station - Two Highways
DYEAR=1989
DGENRE=Country
TTITLE0=Two Highways
TTITLE1=I'm Alone Again
TTITLE2=Wild Bill Jones
TTITLE3=Beaumont Rag
TTITLE4=Heaven's Bright Shore
TTITLE5=Love You In Vain
TTITLE6=Here Comes Goodbye
TTITLE7=As Lovely As You
TTITLE8=Windy City Rag
TTITLE9=Lord Don't Forsake Me
TTITLE10=Teardrops Will Kiss The Morning Dew
TTITLE11=Midnight Rider
EXTD=YEAR: 1989
EXTT0=
EXTT1=
EXTT2=
EXTT3=
EXTT4=
EXTT5=
EXTT6=
EXTT7=
EXTT8=
EXTT9=
EXTT10=
EXTT11=
PLAYORDER=
